<svg version="1.1" id="Layer_1" xmlns="http://www.w3.org/2000/svg" x="0" y="0" viewBox="0 0 597.6 72" xml:space="preserve"><style>.st2{fill:#59595b}</style><path d="M102.2 12.8V72s-14.9-10-37-10c-4.8 0-11 .2-17.7-.4l14.2-12 15.7 9 2.9-25.4 21.9-20.4zm-20.8 2.9l20.8-5.5V0c-7.8 0-14.6.5-20.6 1.4l-.2 14.3zm-30 26.6L37.8 31l25.8-9.6L75.3 2.5C46.9 8.2 38.5 22 20.7 22 6.7 22 0 16.1 0 16.1c6.5 31.8 24.6 41.6 41.4 44.6l10-18.4z" fill="#9e28b5"/><path d="M102.2 10.2v2.6L80.3 33.1l-2.9 25.4-15.7-9-14.2 12.1c-2-.2-4.1-.5-6.2-.9l10.1-18.4L37.8 31l25.8-9.6 11.7-19c2-.4 4.1-.8 6.3-1.1l-.1 14.3 20.7-5.4z" fill="#fff"/><path class="st2" d="M160.9 66.1c-4.7 3.9-11.6 5.9-20.7 5.9-8.8 0-15.7-1.9-20.7-5.6-5.1-3.7-7.9-9.4-8.5-17.2h15c.6 3.7 2.1 6.4 4.5 8.2 2.4 1.7 5.9 2.6 10.5 2.6 4.4 0 7.5-.8 9.3-2.5s2.6-3.8 2.6-6.3c0-2-.6-3.8-1.9-5.3-1.2-1.5-3.8-2.5-7.5-3.2l-9-1.7c-7.3-1.3-12.8-3.6-16.5-6.7-3.7-3.1-5.5-7.7-5.5-13.7 0-4.5 1.1-8.3 3.4-11.3 2.3-3.1 5.5-5.4 9.6-7 4.1-1.6 8.9-2.4 14.3-2.4 6 0 10.8.8 14.6 2.5s6.7 4 8.7 6.9 3.3 6.3 3.8 10l-14.6 1.8c-.8-3.2-2.2-5.6-4-7.1-1.8-1.5-4.8-2.3-8.9-2.3-4.4 0-7.5.7-9.3 2.2-1.9 1.5-2.8 3.4-2.8 5.7s.7 4.1 2.1 5.3c1.4 1.2 3.9 2.2 7.4 2.9l9.4 1.8c7.6 1.5 13.2 3.8 16.6 7.1 3.5 3.2 5.2 7.8 5.2 13.7 0 6.6-2.4 11.8-7.1 15.7zM191.9 14.9H171V1.7h57.1v13.2h-21v55.4h-15.2V14.9zM246.6 1.7h17.9l24.3 68.6h-15.6l-5.1-15.2h-25.7l-5.2 15.2H222l24.6-68.6zm17.7 41.2L255.1 15 246 42.9h18.3zM303.6 14.9h-20.9V1.7h57.1v13.2h-21v55.4h-15.2V14.9zM346.6 1.7h15.1v26.4h26.7V1.7h15.2v68.5h-15.2V41.7h-26.7v28.6h-15.1V1.7zM413.1 1.7h47.5v12.2H428v15.3h30.7v12.2H428v16.7h34.6l-1.5 12.2h-47.9V1.7h-.1zM490.4 1.7h17.9l24.4 68.5h-15.6L512 55h-25.7l-5.2 15.2h-15.3l24.6-68.5zm17.8 41.2L499 15l-9.2 27.9h18.4zM537.9 1.7h26c10.8 0 19.1 2.8 25 8.4 5.8 5.6 8.7 14.1 8.7 25.3 0 11.4-3.1 20-9.2 25.9-6.1 5.9-14.7 8.8-25.7 8.8h-24.9V1.7h.1zm25.5 55.8c6.5 0 11.2-1.9 14.3-5.7 3-3.8 4.6-9.2 4.6-16.1 0-6.8-1.4-12.1-4.3-15.7-2.8-3.6-7.4-5.5-13.6-5.5h-11.6v43h10.6z"/></svg>